<svg width="41" height="40" viewBox="0 0 41 40" fill="none" xmlns="http://www.w3.org/2000/svg">
<path d="M20.3335 30C20.3335 35.5228 24.8106 40 30.3335 40C35.8563 40 40.3335 35.5228 40.3335 30C40.3335 24.4772 35.8563 20 30.3335 20H20.3335V30Z" fill="#FFD11A"/>
<path d="M20.3335 10C20.3335 4.47715 15.8563 0 10.3335 0C4.81065 0 0.333496 4.47715 0.333496 10C0.333496 15.5228 4.81065 20 10.3335 20H20.3335V10Z" fill="#FFD11A"/>
<path fill-rule="evenodd" clip-rule="evenodd" d="M30.3335 0C24.8106 0 20.3335 4.47715 20.3335 10V20H30.3335C35.8563 20 40.3335 15.5228 40.3335 10C40.3335 4.47715 35.8563 0 30.3335 0ZM35.3335 10C35.3335 12.7614 33.0949 15 30.3335 15C27.5721 15 25.3335 12.7614 25.3335 10C25.3335 7.23858 27.5721 5 30.3335 5C33.0949 5 35.3335 7.23858 35.3335 10Z" fill="#404040"/>
<path fill-rule="evenodd" clip-rule="evenodd" d="M10.3335 40C15.8563 40 20.3335 35.5228 20.3335 30V20H10.3335C4.81065 20 0.333496 24.4772 0.333496 30C0.333496 35.5228 4.81065 40 10.3335 40ZM15.3335 30C15.3335 32.7614 13.0949 35 10.3335 35C7.57207 35 5.3335 32.7614 5.3335 30C5.3335 27.2386 7.57207 25 10.3335 25C13.0949 25 15.3335 27.2386 15.3335 30Z" fill="#404040"/>
</svg>
